<svg width="40" height="40" viewBox="0 0 40 40" fill="none" xmlns="http://www.w3.org/2000/svg">
<g clip-path="url(#clip0_129_53)">
<path d="M19.2793 34.334L10.0859 13.0293C9.25391 11.1309 8.76172 10.1113 8.60938 9.9707C8.46875 9.81836 7.85938 9.70117 6.78125 9.61914L6.44727 9.60156V7.98438H17.7324V9.60156L17.3984 9.61914C16.9414 9.63086 16.4844 9.64258 16.0273 9.6543C15.582 9.66602 15.3594 9.90625 15.3594 10.375C15.3594 10.7266 15.6582 11.6113 16.2559 13.0293L22.0742 26.7402L27.6992 13.0469C27.8164 12.7422 27.9922 12.25 28.2266 11.5703C28.4727 10.8789 28.5957 10.4512 28.5957 10.2871C28.5957 9.85352 28.2324 9.63672 27.5059 9.63672L26.5039 9.61914L26.1875 9.60156V7.98438H33.5527V9.60156L33.2363 9.61914C32.9082 9.64258 32.6562 9.66016 32.4805 9.67188C31.8945 9.69531 31.4902 9.84766 31.2676 10.1289C31.0566 10.4102 30.5938 11.377 29.8789 13.0293L21.0371 34.334H19.2793Z" fill="black"/>
</g>
<defs>
<clipPath id="clip0_129_53">
<rect width="40" height="40" fill="white"/>
</clipPath>
</defs>
</svg>
